<?xml version="1.0" standalone="no"?>
<!DOCTYPE svg PUBLIC "-//W3C//DTD SVG 20010904//EN"
 "http://www.w3.org/TR/2001/REC-SVG-20010904/DTD/svg10.dtd">
<svg version="1.0" xmlns="http://www.w3.org/2000/svg"
 width="260.000000pt" height="260.000000pt" viewBox="0 0 260.000000 260.000000"
 preserveAspectRatio="xMidYMid meet">
<metadata>
Created by potrace 1.11, written by Peter Selinger 2001-2013
</metadata>
<g transform="translate(0.000000,260.000000) scale(0.100000,-0.100000)"
fill="#000000" stroke="none">
<path d="M0 1300 l0 -1300 1300 0 1300 0 0 1300 0 1300 -1300 0 -1300 0 0
-1300z m2464 698 c9 -177 28 -949 24 -953 -1 -1 -17 -6 -35 -9 -30 -7 -32 -6
-37 26 -3 18 -7 131 -9 251 -2 119 -6 219 -9 222 -2 2 -132 -26 -289 -64
l-284 -68 3 -209 c2 -115 5 -230 8 -256 l6 -47 -38 -10 c-21 -6 -39 -9 -40 -8
-2 2 -33 1071 -31 1074 1 0 18 4 38 8 l36 7 7 -238 c4 -131 9 -240 11 -243 3
-2 133 27 290 64 l285 69 -7 247 -6 247 24 5 c13 2 29 5 35 6 8 1 14 -38 18
-121z m-914 -104 c0 -6 -361 -1157 -364 -1161 0 -1 -14 -3 -29 -5 -28 -3 -28
-3 -228 486 -110 268 -198 491 -195 494 3 2 21 5 41 6 l36 1 140 -345 c77
-190 155 -385 174 -435 19 -49 34 -82 35 -73 0 10 54 194 121 410 205 670 187
616 212 621 37 7 57 7 57 1z m-955 -255 c4 -17 5 -33 2 -35 -3 -3 -94 -26
-203 -53 l-199 -47 3 -210 c2 -115 5 -210 7 -212 2 -2 79 15 172 37 93 23 177
41 186 41 13 0 17 -9 17 -33 l0 -32 -189 -45 -189 -44 5 -216 c3 -118 7 -216
8 -218 1 -1 95 20 210 48 114 28 209 49 211 48 1 -2 5 -15 9 -30 6 -23 3 -29
-16 -38 -24 -10 -482 -121 -485 -117 -1 1 -7 196 -13 432 -6 237 -14 477 -17
535 l-5 106 228 56 c125 31 233 56 240 57 6 1 14 -13 18 -30z"/>
</g>
</svg>
